<?xml version="1.0" standalone="no"?>
<!DOCTYPE svg PUBLIC "-//W3C//DTD SVG 20010904//EN" "http://www.w3.org/TR/2001/REC-SVG-20010904/DTD/svg10.dtd">
<svg version="1.0" xmlns="http://www.w3.org/2000/svg"
  width="512.000000pt" height="512.000000pt" viewBox="0 0 512.000000 512.000000"
  preserveAspectRatio="xMidYMid meet">

  <g transform="translate(0.000000,512.000000) scale(0.100000,-0.100000)"
    fill="#ffffff" stroke="none">
    <path
      d="M2485 4741 c-22 -10 -55 -34 -73 -55 l-32 -37 0 -673 c0 -628 1 -674
18 -688 41 -35 90 -27 111 19 8 17 11 215 11 658 0 590 1 635 17 644 11 6 24
6 35 0 17 -9 18 -47 18 -653 0 -611 1 -645 18 -667 26 -31 78 -31 104 0 17 22
18 57 18 686 l0 662 -29 40 c-32 44 -101 83 -147 83 -16 0 -47 -9 -69 -19z" />
    <path
      d="M1129 3097 c-52 -28 -127 -114 -242 -279 -381 -547 -579 -1070 -581
-1533 0 -178 17 -269 75 -393 53 -114 135 -199 244 -253 113 -55 189 -72 325
-73 107 -1 120 1 195 31 222 90 420 263 566 493 26 41 58 87 72 103 l26 27
751 0 c470 0 758 -4 770 -10 10 -5 32 -36 50 -67 103 -184 272 -368 424 -462
53 -33 129 -68 189 -89 97 -33 107 -34 202 -28 122 7 236 35 318 78 89 46 187
148 230 240 56 116 68 175 74 358 6 181 -7 295 -54 490 -81 336 -289 765 -542
1119 -114 160 -175 226 -231 250 l-49 21 -1384 0 -1384 0 -44 -23z m2817 -135
c59 -48 208 -255 329 -457 257 -426 388 -809 402 -1170 5 -120 2 -168 -11
-234 -52 -254 -190 -372 -461 -395 -67 -6 -92 -4 -150 14 -211 65 -404 238
-553 496 -47 82 -86 119 -140 134 -51 14 -1543 14 -1595 -1 -50 -14 -100 -59
-138 -125 -141 -248 -370 -447 -583 -509 -50 -15 -71 -15 -150 -6 -230 27
-354 120 -415 311 -71 220 -31 578 105 949 104 282 400 785 569 967 l41 44
1365 0 c1277 0 1365 -2 1385 -18z" />
    <path
      d="M1314 2759 c-35 -18 -44 -53 -44 -179 l0 -120 -130 0 c-160 0 -170
-6 -170 -99 0 -52 3 -62 26 -80 24 -19 40 -21 150 -21 l124 0 0 -124 c0 -110
2 -126 21 -150 18 -23 27 -26 84 -26 90 0 95 9 95 172 l0 128 130 0 c126 0
132 1 155 25 36 35 36 115 0 150 -23 24 -29 25 -155 25 l-130 0 0 133 c0 121
-2 136 -20 152 -23 21 -105 30 -136 14z" />
    <path
      d="M3714 2759 c-42 -12 -82 -54 -95 -100 -10 -32 -9 -46 6 -85 56 -146
268 -105 268 53 0 90 -92 158 -179 132z" />
    <path d="M3385 2481 c-93 -56 -89 -196 5 -243 92 -47 194 8 206 109 14 108
-118 192 -211 134z" />
    <path d="M3985 2480 c-145 -95 -17 -320 138 -245 95 46 102 190 12 245 -42 26
-110 26 -150 0z" />
    <path
      d="M3694 2226 c-61 -27 -95 -107 -74 -170 6 -19 27 -49 47 -67 34 -29
40 -31 95 -27 47 3 64 10 88 33 88 85 38 230 -83 241 -23 3 -56 -2 -73 -10z" />
    <path
      d="M2054 2118 c-60 -20 -127 -80 -158 -142 -94 -182 38 -405 241 -408
167 -2 291 116 293 279 0 105 -65 210 -160 259 -42 21 -170 28 -216 12z" />
    <path
      d="M2890 2121 c-71 -23 -141 -83 -175 -151 -22 -44 -30 -143 -16 -196
23 -86 100 -167 185 -194 65 -21 151 -15 212 15 208 102 212 402 7 505 -51 26
-164 37 -213 21z" />
  </g>
</svg>